<svg width="32" height="33" viewBox="0 0 32 33" fill="none" xmlns="http://www.w3.org/2000/svg">
<rect y="0.5" width="32" height="32" rx="8" fill="#303030"/>
<path d="M10.1134 22.5454C8.91176 22.5454 7.92577 22.2065 7.15546 21.5286C6.38515 20.8507 6 19.9418 6 18.8017V11.5454H8.11064V18.6322C8.11064 19.2074 8.27498 19.6593 8.60364 19.988C8.94258 20.3064 9.44584 20.4656 10.1134 20.4656C10.781 20.4656 11.2792 20.3064 11.6078 19.988C11.9468 19.6593 12.1162 19.2074 12.1162 18.6322V11.5454H14.2423V18.8017C14.2423 19.9418 13.8571 20.8507 13.0868 21.5286C12.3165 22.2065 11.3254 22.5454 10.1134 22.5454Z" fill="white"/>
<path d="M21.6785 16.7835L25.8228 22.3297H23.3732L19.5216 17.2765V22.3297H17.3956V11.5454H19.5216V16.3059L23.2191 11.5454H25.6687L21.6785 16.7835Z" fill="white"/>
<path d="M10.1134 22.5454C8.91176 22.5454 7.92577 22.2065 7.15546 21.5286C6.38515 20.8507 6 19.9418 6 18.8017V11.5454H8.11064V18.6322C8.11064 19.2074 8.27498 19.6593 8.60364 19.988C8.94258 20.3064 9.44584 20.4656 10.1134 20.4656C10.781 20.4656 11.2792 20.3064 11.6078 19.988C11.9468 19.6593 12.1162 19.2074 12.1162 18.6322V11.5454H14.2423V18.8017C14.2423 19.9418 13.8571 20.8507 13.0868 21.5286C12.3165 22.2065 11.3254 22.5454 10.1134 22.5454Z" stroke="white" stroke-width="0.5"/>
<path d="M21.6785 16.7835L25.8228 22.3297H23.3732L19.5216 17.2765V22.3297H17.3956V11.5454H19.5216V16.3059L23.2191 11.5454H25.6687L21.6785 16.7835Z" stroke="white" stroke-width="0.5"/>
</svg>
